PathFileType	4	(X/Y/Z)	Patient4_TMGait_0pt4_03_left_37.trc.trc
DataRate	CameraRate	NumFrames	NumMarkers	Units	OrigDataRate	OrigDataStartFrame	OrigNumFrames
75.675675675676	75.675675675676	5	33	mm	75.675675675676	124	       141
Frame#	Time	Sacral			L.Shoulder			Chest			R.Shoulder			Neck			R.ASIS			L.ASIS			R.Thigh.Superior			R.Thigh.Lateral			R.Thigh.Inferior			R.Patella			L.Thigh.Superior			L.Thigh.Lateral			L.Thigh.Inferior			L.Patella			L.Shank.Superior			L.Shank.Lateral			L.Shank.Inferior			R.Shank.Superior			R.Shank.Lateral			R.Shank.Inferior			R.Heel			R.Midfoot.Superior			R.Midfoot.Lateral			R.Toe			L.Heel			L.Midfoot.Lateral			L.Midfoot.Superior			L.Toe			L.Elbow			L.Wrist			R.Elbow			R.Wrist			
		X1	Y1	Z1	X2	Y2	Z2	X3	Y3	Z3	X4	Y4	Z4	X5	Y5	Z5	X6	Y6	Z6	X7	Y7	Z7	X8	Y8	Z8	X9	Y9	Z9	X10	Y10	Z10	X11	Y11	Z11	X12	Y12	Z12	X13	Y13	Z13	X14	Y14	Z14	X15	Y15	Z15	X16	Y16	Z16	X17	Y17	Z17	X18	Y18	Z18	X19	Y19	Z19	X20	Y20	Z20	X21	Y21	Z21	X22	Y22	Z22	X23	Y23	Z23	X24	Y24	Z24	X25	Y25	Z25	X26	Y26	Z26	X27	Y27	Z27	X28	Y28	Z28	X29	Y29	Z29	X30	Y30	Z30	X31	Y31	Z31	X32	Y32	Z32	X33	Y33	Z33	

124	50.675357142857	882.800784503560	1001.413771036219	527.067775442187	1015.863687984788	1429.644391880776	324.036371480594	1149.734234184889	1363.721606492667	461.662844503320	1100.254443356154	1432.331910134938	650.411556872760	1026.484420961681	1490.123104001261	482.909256212775	1124.624901297433	934.950043917482	609.790905286072	1073.348718963706	957.491441645263	338.997408264355	1117.797276050259	722.488557205652	582.970820166986	1017.980316599441	629.483292038096	655.288092738235	1069.131404620671	564.808431121483	570.283438703771	1050.560821442305	482.540261688286	577.126657784743	1150.524844780485	768.951224974085	362.591147189494	1088.673852463321	637.574731554008	296.923062544369	1196.091566334523	579.065739804036	348.789279839221	1217.335106262383	511.429776092202	348.224653599299	1197.290515411524	438.018124700093	339.963735804578	1120.159504861812	312.687670076346	294.028470997087	1202.056332024828	207.981783231106	345.496026888861	1013.591341413265	397.414781013116	587.601256374645	936.942468836863	301.100243762512	655.851350757466	964.402525185352	202.946080758068	588.442748439248	817.879245308750	43.009792116380	563.827762639800	989.802967103083	95.986432237513	594.704679393640	903.130030526825	36.580071722323	636.396469539241	1111.082991896115	42.655089042389	618.391506036751	1106.034305670027	41.244847082240	388.275324824450	1177.518765226694	38.561952725921	306.129813535212	1257.394026637216	105.832565062451	326.968747303646	1386.168937345349	61.284924892521	295.861445904514	880.813438712702	1097.525942114888	250.604257322259	851.295180314794	838.836981538107	267.679178281721	1249.359548198539	1124.202024478487	767.104802675829	1502.967084214344	1125.592689125037	723.923391572117	
125	50.688571428571	883.904988512356	1000.728922163003	524.477034622930	1015.786668785959	1428.532646607473	320.828209431748	1149.928492894877	1363.419631724183	458.557148576324	1100.219888862035	1432.222747624935	647.227673880924	1026.326204947071	1489.512594089327	479.655262288042	1125.802403075810	934.364676378689	607.765647695209	1074.843684270054	956.611633979937	336.943838631982	1118.439444357597	721.632914987449	581.417424066395	1017.887496943145	629.076298558240	653.569032960730	1068.877316625695	563.799547289672	568.885230881898	1049.620177257040	481.397725939361	575.607473170385	1151.856240438165	767.192510577652	361.017333163546	1088.057046215200	636.008645753655	296.959285823499	1195.381337803754	577.287164234186	348.808857509713	1215.258298389774	508.772821526189	348.972691488659	1194.685936596713	435.156691958183	340.722974715718	1115.791265842380	310.640551083999	295.394077571397	1195.891055975694	204.952585622064	347.525489304713	1011.776644106373	396.680246415172	586.408555450285	934.175117313068	301.410793936993	655.093386162935	960.420753609569	202.695663138538	588.047765412492	812.616833468226	43.400006490387	564.071649118140	984.656822716430	95.942155348776	594.734314136003	897.921007997774	36.578027584953	636.515048948827	1105.889948520662	42.319419761929	618.430440835700	1096.771552399006	40.247288885563	390.404640300690	1168.080432779927	37.362807323263	308.027498030526	1249.331708243177	102.615788237121	329.804956603177	1377.513338905579	55.868579624029	297.901441591522	881.640994332470	1095.879181896264	248.057131740299	853.295877319197	836.993720832302	265.227603516779	1250.701082164552	1124.492537778448	763.364341614474	1504.214193167057	1129.439012850158	720.324424703222	
126	50.701785714286	884.997483057088	1000.278217834902	521.825105452252	1015.909680397712	1427.592817244898	317.498117549117	1150.254949876211	1363.284862248403	455.390129048872	1100.287561546580	1432.365014653631	643.941577555162	1026.277808058994	1489.119341803609	476.274199501051	1126.962679912508	933.947556375083	605.638985408424	1076.286600147985	956.024489265497	334.803690603634	1119.179437344079	720.964347314103	579.782401704064	1017.951665638666	628.798784619594	651.718051526015	1068.901938664515	562.924760798814	567.413699487548	1049.014739449472	480.288742789091	574.041521131871	1152.938783777272	765.598898069613	359.443627095857	1087.478421322432	634.922490499707	296.510478089832	1194.482151192010	575.812208943341	348.623024911382	1213.020962320097	506.572920492806	349.329010261974	1192.105174735859	432.835106646787	340.993543167641	1111.887837954134	308.997174459630	295.964196883608	1190.305034098674	202.522885802696	348.910733144825	1010.233752064691	396.033744565359	585.169211550138	931.551210771572	301.905865125560	654.281994400386	956.578566820370	202.586239599793	587.687701622984	807.383782222146	44.037752620524	564.373900773940	979.584064037466	95.899336372105	594.737144019203	892.757958006543	36.648000524640	636.650265300813	1100.746892034549	41.923644049182	618.479420597139	1088.523244182427	39.431490675288	391.793911170921	1159.743672076458	36.551369410042	309.252318533593	1242.006603439003	100.205934191194	331.936034154405	1369.785830988179	51.822195080363	299.418809196306	883.245761352479	1094.113868314091	245.168405608229	856.495267442688	834.981155534153	262.221893488846	1251.444715994539	1124.671903662882	759.713772769437	1504.936806487182	1132.148732653622	717.003895448300	
127	50.715000000000	886.044809649451	1000.112501032199	519.136990381957	1016.224614556145	1426.882515601408	314.092027917332	1150.709716689772	1363.337995207336	452.188720037868	1100.485951178883	1432.789319722446	640.578672023823	1026.346655282000	1488.976642705835	472.811305566171	1128.058183936128	933.743256280795	603.392399178046	1077.603668710334	955.771517367353	332.545557926122	1119.940818625460	720.535527974020	578.030834551022	1018.151402101426	628.689667649535	649.744917325048	1069.186501345324	562.238423213577	565.862721521687	1048.768856196753	479.244189740942	572.472443856361	1153.746559413445	764.307576220287	357.820034275669	1086.979221408521	634.362703972486	295.530687845587	1193.429398431075	574.704352957619	348.121922183159	1210.672855859929	504.898978930613	349.200496553500	1189.584404791084	431.096669954751	340.752653585816	1108.464797062329	307.800669703214	295.734438936479	1185.316009404354	200.737295125307	349.656530135643	1008.972847780443	395.508650387554	583.914460403535	929.072382492567	302.623543763560	653.430543883658	952.899675046879	202.660784186579	587.377554928087	802.193487185238	44.995799733656	564.726234183537	974.605358943413	95.865655293841	594.701832328921	887.647981570889	36.833952867233	636.799019085417	1095.655077565550	41.474580300038	618.536866245363	1081.337426451854	38.831414436300	392.533850587199	1152.538025981433	36.080439302132	309.886220378713	1235.462338171994	98.589331156321	333.352060941180	1363.012252384126	49.109800163454	300.418300030135	885.623602937642	1092.305330480392	241.959406074702	860.895655147559	832.885091195004	258.679302057196	1251.580512534958	1124.763512594946	756.166666615236	1505.151996025742	1133.685022620254	713.969763208351	
128	50.728214285714	887.022315798979	1000.254416846457	516.413159044831	1016.708473961169	1426.439055136564	310.651158093949	1151.275058742021	1363.586469314727	448.977681775370	1100.816967278920	1433.501836193935	637.164059665728	1026.526383545548	1489.096687519741	469.308436390954	1129.047041458630	933.783392951734	601.011416047507	1078.753581488260	955.861086425676	330.140440103126	1120.670595433754	720.386976408081	576.138563271092	1018.488145363795	628.772620361892	647.663443710200	1069.740017635229	561.781187941332	564.229011996432	1048.936378171342	478.281309391131	570.949719373806	1154.292901079589	763.413479656960	356.081359904915	1086.564404602751	634.308957000959	294.033318656999	1192.241469625102	573.957934500681	347.225083957576	1208.233437649437	503.734935517272	348.558583070215	1187.109073055419	429.904878547386	340.037051243686	1105.432910388561	307.031991204492	294.799314978584	1180.833148606047	199.556546583381	349.836926093492	1008.026931335131	395.125358355307	582.676115899936	926.761960080104	303.593891800678	652.549477081569	949.419925763190	202.954430399671	587.126127045725	797.065178876333	46.349529216262	565.112446781258	969.746588035018	95.854910541823	594.622381175520	882.597945074510	37.189613370116	636.955281858527	1090.609955456467	40.982514695552	618.599071937006	1075.102610242424	38.444686004836	392.759184998973	1146.329706806302	35.874414764134	310.050318310939	1229.614826218253	97.665806121846	334.121123481840	1357.076205365206	47.557008659307	300.956515649548	888.749204835158	1090.520679117948	238.447784587350	866.503331728225	830.786403277742	254.619164672508	1251.102920192266	1124.789173080190	752.736341813932	1504.859400488661	1134.009382320147	711.225055431298	
